<mxfile host="app.diagrams.net" modified="2024-01-24T19:23:23.620Z" agent="Mozilla/5.0 (Windows NT 10.0; Win64; x64) AppleWebKit/537.36 (KHTML, like Gecko) Chrome/120.0.0.0 Safari/537.36" etag="Pdh9xBvT8FRs_HMTYDv-" version="23.0.1" type="github">
  <diagram name="Page-1" id="P15o201in64izihtj3ts">
    <mxGraphModel dx="707" dy="585" grid="1" gridSize="10" guides="1" tooltips="1" connect="1" arrows="1" fold="1" page="1" pageScale="1" pageWidth="850" pageHeight="1100" math="0" shadow="0">
      <root>
        <mxCell id="0" />
        <mxCell id="1" parent="0" />
        <mxCell id="U9WHa6zzNCZlY6UXqkjZ-1" value="Client" style="rounded=1;whiteSpace=wrap;html=1;" vertex="1" parent="1">
          <mxGeometry x="200" y="405" width="80" height="50" as="geometry" />
        </mxCell>
        <mxCell id="U9WHa6zzNCZlY6UXqkjZ-2" value="API Layer / Load balencer" style="rounded=1;whiteSpace=wrap;html=1;" vertex="1" parent="1">
          <mxGeometry x="320" y="340" width="105" height="180" as="geometry" />
        </mxCell>
        <mxCell id="U9WHa6zzNCZlY6UXqkjZ-3" value="Event Broker" style="rounded=1;whiteSpace=wrap;html=1;" vertex="1" parent="1">
          <mxGeometry x="320" y="240" width="100" height="60" as="geometry" />
        </mxCell>
        <mxCell id="U9WHa6zzNCZlY6UXqkjZ-16" value="" style="rounded=0;whiteSpace=wrap;html=1;" vertex="1" parent="1">
          <mxGeometry x="480" y="200" width="160" height="320" as="geometry" />
        </mxCell>
        <mxCell id="U9WHa6zzNCZlY6UXqkjZ-29" style="edgeStyle=orthogonalEdgeStyle;rounded=0;orthogonalLoop=1;jettySize=auto;html=1;exitX=0;exitY=0.75;exitDx=0;exitDy=0;entryX=1;entryY=0.5;entryDx=0;entryDy=0;" edge="1" parent="1" source="U9WHa6zzNCZlY6UXqkjZ-6" target="U9WHa6zzNCZlY6UXqkjZ-2">
          <mxGeometry relative="1" as="geometry" />
        </mxCell>
        <mxCell id="U9WHa6zzNCZlY6UXqkjZ-35" style="edgeStyle=orthogonalEdgeStyle;rounded=0;orthogonalLoop=1;jettySize=auto;html=1;exitX=0.25;exitY=0;exitDx=0;exitDy=0;entryX=1;entryY=0.75;entryDx=0;entryDy=0;" edge="1" parent="1" source="U9WHa6zzNCZlY6UXqkjZ-6" target="U9WHa6zzNCZlY6UXqkjZ-3">
          <mxGeometry relative="1" as="geometry">
            <Array as="points">
              <mxPoint x="530" y="320" />
              <mxPoint x="460" y="320" />
              <mxPoint x="460" y="285" />
            </Array>
          </mxGeometry>
        </mxCell>
        <mxCell id="U9WHa6zzNCZlY6UXqkjZ-6" value="Microservice" style="rounded=1;whiteSpace=wrap;html=1;" vertex="1" parent="1">
          <mxGeometry x="500" y="345" width="120" height="60" as="geometry" />
        </mxCell>
        <mxCell id="U9WHa6zzNCZlY6UXqkjZ-7" value="Microservice" style="rounded=1;whiteSpace=wrap;html=1;" vertex="1" parent="1">
          <mxGeometry x="500" y="240" width="120" height="60" as="geometry" />
        </mxCell>
        <mxCell id="U9WHa6zzNCZlY6UXqkjZ-4" value="Microservice" style="rounded=1;whiteSpace=wrap;html=1;" vertex="1" parent="1">
          <mxGeometry x="500" y="440" width="120" height="60" as="geometry" />
        </mxCell>
        <mxCell id="U9WHa6zzNCZlY6UXqkjZ-32" style="edgeStyle=orthogonalEdgeStyle;rounded=0;orthogonalLoop=1;jettySize=auto;html=1;exitX=0;exitY=0;exitDx=0;exitDy=52.5;exitPerimeter=0;entryX=1;entryY=0.75;entryDx=0;entryDy=0;" edge="1" parent="1" source="U9WHa6zzNCZlY6UXqkjZ-17" target="U9WHa6zzNCZlY6UXqkjZ-7">
          <mxGeometry relative="1" as="geometry" />
        </mxCell>
        <mxCell id="U9WHa6zzNCZlY6UXqkjZ-38" style="edgeStyle=orthogonalEdgeStyle;rounded=0;orthogonalLoop=1;jettySize=auto;html=1;exitX=1;exitY=0.5;exitDx=0;exitDy=0;exitPerimeter=0;entryX=1;entryY=0.5;entryDx=0;entryDy=0;" edge="1" parent="1" source="U9WHa6zzNCZlY6UXqkjZ-17" target="U9WHa6zzNCZlY6UXqkjZ-37">
          <mxGeometry relative="1" as="geometry">
            <Array as="points">
              <mxPoint x="830" y="270" />
              <mxPoint x="830" y="485" />
            </Array>
          </mxGeometry>
        </mxCell>
        <mxCell id="U9WHa6zzNCZlY6UXqkjZ-39" value="Storage Event" style="edgeLabel;html=1;align=center;verticalAlign=middle;resizable=0;points=[];" vertex="1" connectable="0" parent="U9WHa6zzNCZlY6UXqkjZ-38">
          <mxGeometry x="-0.0327" relative="1" as="geometry">
            <mxPoint as="offset" />
          </mxGeometry>
        </mxCell>
        <mxCell id="U9WHa6zzNCZlY6UXqkjZ-17" value="Microservice specific store" style="shape=cylinder3;whiteSpace=wrap;html=1;boundedLbl=1;backgroundOutline=1;size=15;" vertex="1" parent="1">
          <mxGeometry x="690" y="230" width="80" height="80" as="geometry" />
        </mxCell>
        <mxCell id="U9WHa6zzNCZlY6UXqkjZ-22" style="edgeStyle=orthogonalEdgeStyle;rounded=0;orthogonalLoop=1;jettySize=auto;html=1;exitX=0;exitY=0;exitDx=0;exitDy=52.5;exitPerimeter=0;entryX=1;entryY=0.75;entryDx=0;entryDy=0;" edge="1" parent="1" source="U9WHa6zzNCZlY6UXqkjZ-18" target="U9WHa6zzNCZlY6UXqkjZ-6">
          <mxGeometry relative="1" as="geometry" />
        </mxCell>
        <mxCell id="U9WHa6zzNCZlY6UXqkjZ-18" value="&#xa;&lt;span style=&quot;color: rgb(0, 0, 0); font-family: Helvetica; font-size: 12px; font-style: normal; font-variant-ligatures: normal; font-variant-caps: normal; font-weight: 400; letter-spacing: normal; orphans: 2; text-align: center; text-indent: 0px; text-transform: none; widows: 2; word-spacing: 0px; -webkit-text-stroke-width: 0px; background-color: rgb(251, 251, 251); text-decoration-thickness: initial; text-decoration-style: initial; text-decoration-color: initial; float: none; display: inline !important;&quot;&gt;Microservice specific store&lt;/span&gt;&#xa;&#xa;" style="shape=cylinder3;whiteSpace=wrap;html=1;boundedLbl=1;backgroundOutline=1;size=15;" vertex="1" parent="1">
          <mxGeometry x="690" y="335" width="80" height="80" as="geometry" />
        </mxCell>
        <mxCell id="U9WHa6zzNCZlY6UXqkjZ-27" style="edgeStyle=orthogonalEdgeStyle;rounded=0;orthogonalLoop=1;jettySize=auto;html=1;exitX=0.855;exitY=0;exitDx=0;exitDy=4.35;exitPerimeter=0;entryX=0.75;entryY=1;entryDx=0;entryDy=0;" edge="1" parent="1" source="U9WHa6zzNCZlY6UXqkjZ-19" target="U9WHa6zzNCZlY6UXqkjZ-16">
          <mxGeometry relative="1" as="geometry" />
        </mxCell>
        <mxCell id="U9WHa6zzNCZlY6UXqkjZ-19" value="Shared database" style="shape=cylinder3;whiteSpace=wrap;html=1;boundedLbl=1;backgroundOutline=1;size=15;" vertex="1" parent="1">
          <mxGeometry x="510" y="550" width="100" height="70" as="geometry" />
        </mxCell>
        <mxCell id="U9WHa6zzNCZlY6UXqkjZ-26" style="edgeStyle=orthogonalEdgeStyle;rounded=0;orthogonalLoop=1;jettySize=auto;html=1;exitX=0.25;exitY=1;exitDx=0;exitDy=0;entryX=0.145;entryY=0;entryDx=0;entryDy=4.35;entryPerimeter=0;" edge="1" parent="1" source="U9WHa6zzNCZlY6UXqkjZ-16" target="U9WHa6zzNCZlY6UXqkjZ-19">
          <mxGeometry relative="1" as="geometry" />
        </mxCell>
        <mxCell id="U9WHa6zzNCZlY6UXqkjZ-31" style="edgeStyle=orthogonalEdgeStyle;rounded=0;orthogonalLoop=1;jettySize=auto;html=1;exitX=1;exitY=0.25;exitDx=0;exitDy=0;entryX=0;entryY=0;entryDx=0;entryDy=27.5;entryPerimeter=0;" edge="1" parent="1" source="U9WHa6zzNCZlY6UXqkjZ-7" target="U9WHa6zzNCZlY6UXqkjZ-17">
          <mxGeometry relative="1" as="geometry" />
        </mxCell>
        <mxCell id="U9WHa6zzNCZlY6UXqkjZ-33" style="edgeStyle=orthogonalEdgeStyle;rounded=0;orthogonalLoop=1;jettySize=auto;html=1;exitX=1;exitY=0.25;exitDx=0;exitDy=0;entryX=0;entryY=0;entryDx=0;entryDy=27.5;entryPerimeter=0;" edge="1" parent="1" source="U9WHa6zzNCZlY6UXqkjZ-6" target="U9WHa6zzNCZlY6UXqkjZ-18">
          <mxGeometry relative="1" as="geometry" />
        </mxCell>
        <mxCell id="U9WHa6zzNCZlY6UXqkjZ-34" style="edgeStyle=orthogonalEdgeStyle;rounded=0;orthogonalLoop=1;jettySize=auto;html=1;exitX=1;exitY=0.25;exitDx=0;exitDy=0;entryX=0;entryY=0.25;entryDx=0;entryDy=0;" edge="1" parent="1" source="U9WHa6zzNCZlY6UXqkjZ-2" target="U9WHa6zzNCZlY6UXqkjZ-6">
          <mxGeometry relative="1" as="geometry">
            <Array as="points">
              <mxPoint x="450" y="385" />
              <mxPoint x="450" y="360" />
            </Array>
          </mxGeometry>
        </mxCell>
        <mxCell id="U9WHa6zzNCZlY6UXqkjZ-36" style="edgeStyle=orthogonalEdgeStyle;rounded=0;orthogonalLoop=1;jettySize=auto;html=1;exitX=1;exitY=0.25;exitDx=0;exitDy=0;entryX=0;entryY=0.25;entryDx=0;entryDy=0;" edge="1" parent="1" source="U9WHa6zzNCZlY6UXqkjZ-3" target="U9WHa6zzNCZlY6UXqkjZ-7">
          <mxGeometry relative="1" as="geometry" />
        </mxCell>
        <mxCell id="U9WHa6zzNCZlY6UXqkjZ-40" style="edgeStyle=orthogonalEdgeStyle;rounded=0;orthogonalLoop=1;jettySize=auto;html=1;exitX=0;exitY=0.5;exitDx=0;exitDy=0;entryX=1;entryY=0.5;entryDx=0;entryDy=0;" edge="1" parent="1" source="U9WHa6zzNCZlY6UXqkjZ-37" target="U9WHa6zzNCZlY6UXqkjZ-4">
          <mxGeometry relative="1" as="geometry" />
        </mxCell>
        <mxCell id="U9WHa6zzNCZlY6UXqkjZ-37" value="Event Broker" style="rounded=1;whiteSpace=wrap;html=1;" vertex="1" parent="1">
          <mxGeometry x="670" y="455" width="120" height="60" as="geometry" />
        </mxCell>
        <mxCell id="U9WHa6zzNCZlY6UXqkjZ-41" style="edgeStyle=orthogonalEdgeStyle;rounded=0;orthogonalLoop=1;jettySize=auto;html=1;exitX=1;exitY=0.25;exitDx=0;exitDy=0;entryX=-0.015;entryY=0.433;entryDx=0;entryDy=0;entryPerimeter=0;" edge="1" parent="1" source="U9WHa6zzNCZlY6UXqkjZ-1" target="U9WHa6zzNCZlY6UXqkjZ-2">
          <mxGeometry relative="1" as="geometry" />
        </mxCell>
        <mxCell id="U9WHa6zzNCZlY6UXqkjZ-43" value="" style="endArrow=classic;html=1;rounded=0;exitX=-0.008;exitY=0.575;exitDx=0;exitDy=0;exitPerimeter=0;entryX=1;entryY=0.75;entryDx=0;entryDy=0;" edge="1" parent="1" source="U9WHa6zzNCZlY6UXqkjZ-2" target="U9WHa6zzNCZlY6UXqkjZ-1">
          <mxGeometry width="50" height="50" relative="1" as="geometry">
            <mxPoint x="400" y="490" as="sourcePoint" />
            <mxPoint x="450" y="440" as="targetPoint" />
          </mxGeometry>
        </mxCell>
        <mxCell id="U9WHa6zzNCZlY6UXqkjZ-44" value="Microservice Orchastrator" style="text;html=1;strokeColor=none;fillColor=none;align=center;verticalAlign=middle;whiteSpace=wrap;rounded=0;" vertex="1" parent="1">
          <mxGeometry x="480" y="210" width="160" height="30" as="geometry" />
        </mxCell>
      </root>
    </mxGraphModel>
  </diagram>
</mxfile>
